<svg xmlns="http://www.w3.org/2000/svg" width="15" height="23" viewBox="0 0 15 23"><defs><style>.cls-1{fill:#ffb300;fill-rule:evenodd}</style></defs><path id="Forma_1" data-name="Forma 1" class="cls-1" d="M884.5 101a7.563 7.563 0 0 0-7.5 7.608c0 1.689 1.064 4.444 3.251 8.421a92.726 92.726 0 0 0 3.134 5.256L884.5 124l1.115-1.714c.064-.1 1.586-2.444 3.133-5.256 2.188-3.977 3.252-6.732 3.252-8.421a7.564 7.564 0 0 0-7.5-7.609zm0 11.5a3.944 3.944 0 1 1 3.888-3.944 3.917 3.917 0 0 1-3.888 3.944z" transform="translate(-877 -101)"/></svg>