<svg xmlns="http://www.w3.org/2000/svg" width="26" height="24" viewBox="0 0 26 24"><defs><style>.cls-1{fill:#ffb300;fill-rule:evenodd}</style></defs><path id="Forma_1" data-name="Forma 1" class="cls-1" d="M1299.84 109.256h-.94a.233.233 0 0 1-.27-.244 9.158 9.158 0 0 0-9.19-8.012h-.88a9.162 9.162 0 0 0-9.18 7.912.291.291 0 0 1-.23.344h-.99c-.65 0-2.16.662-2.16 4v1.753c0 2.476 1.51 3.047 2.16 3.047h3.14a1.164 1.164 0 0 0 1.18-1.142V110.4a1.164 1.164 0 0 0-1.18-1.143s-.15-.012-.11-.268a7.4 7.4 0 0 1 7.37-6.241h.88a7.374 7.374 0 0 1 7.36 6.17c.02.112.08.339-.1.339a1.164 1.164 0 0 0-1.18 1.143v6.515a1.164 1.164 0 0 0 1.18 1.142h.59c.16 0 .14.126.12.189-.48 2.1-1.56 4.491-3.98 4.491h-1.79a.27.27 0 0 1-.26-.192 1.724 1.724 0 0 0-1.5-.864h-1.65a1.661 1.661 0 1 0 0 3.32h1.65a1.725 1.725 0 0 0 1.51-.885.212.212 0 0 1 .24-.142h1.8c1.65 0 3.85-.792 4.99-4.569.12-.4.22-.8.3-1.189a.163.163 0 0 1 .19-.159h.93c.65 0 2.16-.571 2.16-3.047v-1.753c0-3.292-1.51-4.001-2.16-4.001z" transform="translate(-1276 -101)"/></svg>