<svg xmlns="http://www.w3.org/2000/svg" width="53" height="48" viewBox="0 0 53 48"><defs><style>.cls-1{fill:#ffb300;fill-rule:evenodd;filter:url(#filter)}</style><filter id="filter" x="1201" y="1177" width="53" height="48" filterUnits="userSpaceOnUse"><feFlood result="flood" flood-color="#ffb300"/><feComposite result="composite" operator="in" in2="SourceGraphic"/><feBlend result="blend" in2="SourceGraphic"/></filter></defs><path id="Icon_copy_3" data-name="Icon copy 3" class="cls-1" d="M1243.45 1205.11l-3.57 5.62-2.36-.97-8.24 15.24h9.68l4.23-5.7h3.64l3.9 5.7h3.27l-7.5-19.05zm2.89 15.14h-2.68l-3.53 4.75h9.46zm-41.58-4.37l-2.79 9.12h3.87l3.09-9.09.88-7.07h2.94l2.65 7.33-1.62 8.83h3.75l1.84-10-1.84-5.27-.67-2.39 10.14 5.83-1.9 3.36 4.42 2.58 4.67-8.23-4.42-2.59-1.83 3.24-11.81-6.79-.64-2.27 1.16-4.76.5 4.35.8 2.11 3.16 1.88-1.31-4.73-1.01-9.09-3.28-.14-.57-1.61a5.049 5.049 0 0 0 3.97-4.7l-9.87-1.33a5.218 5.218 0 0 0-.11 1.06 5.117 5.117 0 0 0 2.21 4.22l-.08-.01-1.98 1.68-2.53-.22-5.55 4.93v7.51l4.41 1.1zm-.95-14.99v-2.24l1.87-1.74v4.41zm15.05-16.08l1.5.2c.2-4.52-1.74-7.48-5.24-7.95a6.181 6.181 0 0 0-.85-.06c-3.11 0-5.37 2.31-6.25 6.35l1.3.18z" transform="translate(-1201 -1177)"/></svg>