<svg xmlns="http://www.w3.org/2000/svg" xmlns:xlink="http://www.w3.org/1999/xlink" width="57" height="43" viewBox="0 0 57 43">
  <defs>
    <style>
      .cls-1 {
        fill-rule: evenodd;
        filter: url(#filter);
      }
    </style>
    <filter id="filter" x="1198" y="1046" width="57" height="43" filterUnits="userSpaceOnUse">
      <feFlood result="flood" flood-color="#ffb300"/>
      <feComposite result="composite" operator="in" in2="SourceGraphic"/>
      <feBlend result="blend" in2="SourceGraphic"/>
    </filter>
  </defs>
  <path id="Icon" class="cls-1" d="M1208.5,1081.57h-8.56a1.942,1.942,0,0,0-1.94,1.94v3.56a1.94,1.94,0,0,0,1.94,1.93h8.56a1.938,1.938,0,0,0,1.93-1.93v-3.56A1.94,1.94,0,0,0,1208.5,1081.57Zm14.34,0h-8.56a1.942,1.942,0,0,0-1.94,1.94v3.56a1.94,1.94,0,0,0,1.94,1.93h8.56a1.94,1.94,0,0,0,1.94-1.93v-3.56A1.942,1.942,0,0,0,1222.84,1081.57Zm14.34,0h-8.56a1.94,1.94,0,0,0-1.93,1.94v3.56a1.938,1.938,0,0,0,1.93,1.93h8.56a1.94,1.94,0,0,0,1.94-1.93v-3.56A1.942,1.942,0,0,0,1237.18,1081.57Zm-37.24-10.4h8.56a1.94,1.94,0,0,0,1.93-1.94v-3.56a1.938,1.938,0,0,0-1.93-1.93h-8.56a1.94,1.94,0,0,0-1.94,1.93v3.56A1.942,1.942,0,0,0,1199.94,1071.17Zm14.34,0h8.56a1.942,1.942,0,0,0,1.94-1.94v-3.56a1.94,1.94,0,0,0-1.94-1.93h-8.56a1.94,1.94,0,0,0-1.94,1.93v3.56A1.942,1.942,0,0,0,1214.28,1071.17Zm-7.17,1.49a1.933,1.933,0,0,0-1.94,1.93v3.56a1.933,1.933,0,0,0,1.94,1.93h8.56a1.933,1.933,0,0,0,1.94-1.93v-3.56a1.933,1.933,0,0,0-1.94-1.93h-8.56Zm12.4,1.93v3.56a1.933,1.933,0,0,0,1.94,1.93h8.56a1.933,1.933,0,0,0,1.94-1.93v-3.56a1.933,1.933,0,0,0-1.94-1.93h-8.56A1.933,1.933,0,0,0,1219.51,1074.59Zm34.96-26.64-1.42-1.42a1.811,1.811,0,0,0-2.56,0l-4.77,4.75a1.822,1.822,0,0,0-.18,2.34l-5.28,5.27-2.7-2.69a1.584,1.584,0,0,0-1.14-.49,1.562,1.562,0,0,0-1.32.73l-3.92,5.85a5.4,5.4,0,0,0-.78,2.46l-0.1,4.11a1.7,1.7,0,0,0,.49,1.26,1.746,1.746,0,0,0,1.26.53l4.15-.1a5.409,5.409,0,0,0,2.47-.79l5.87-3.91a1.576,1.576,0,0,0,.72-1.16,1.593,1.593,0,0,0-.48-1.29l-2.7-2.69,5.29-5.27a1.8,1.8,0,0,0,2.33-.19l4.77-4.75A1.8,1.8,0,0,0,1254.47,1047.95Zm-12.78,16.86c-0.25.64-1.32,0.84-1.91,1.39-0.52.47-.74,1.53-1.46,1.85s-1.65-.23-2.35-0.16c-0.81.07-1.68,0.73-2.32,0.49-0.75-.28-0.84-1.29-1.15-1.96s-0.98-1.42-.69-2.17c0.25-.64,1.32-0.83,1.92-1.38,0.52-.48.73-1.54,1.45-1.86s1.66,0.23,2.36.16c0.81-.07,1.67-0.73,2.31-0.49,0.75,0.28.85,1.29,1.15,1.97S1241.99,1064.07,1241.69,1064.81Z" transform="translate(-1198 -1046)"/>
</svg>
