<svg xmlns="http://www.w3.org/2000/svg" width="24" height="24" viewBox="0 0 24 24">
  <defs>
    <style>
      .cls-1 {
        fill: #ffb300;
        fill-rule: evenodd;
      }
    </style>
  </defs>
  <path id="Forma_1" data-name="Forma 1" class="cls-1" d="M1088,101a12,12,0,1,0,12,12A12.012,12.012,0,0,0,1088,101Zm0,21.448a9.447,9.447,0,1,1,9.45-9.448A9.46,9.46,0,0,1,1088,122.447Zm6.25-9.818h-5.39v-6.484a0.985,0.985,0,1,0-1.97,0v7.472a0.985,0.985,0,0,0,.98.988h6.38A0.988,0.988,0,1,0,1094.25,112.629Z" transform="translate(-1076 -101)"/>
</svg>
