<svg xmlns="http://www.w3.org/2000/svg" width="50" height="58" viewBox="0 0 50 58">
  <defs>
    <style>
      .cls-1 {
        fill: #ffb300;
        fill-rule: evenodd;
      }
    </style>
  </defs>
  <path id="Forma_1" data-name="Forma 1" class="cls-1" d="M974.842,383.1c1.742,0.321,3.737-1.48,4.558-4.213a7.446,7.446,0,0,0,.2-3.725,46.528,46.528,0,0,1-4.721,2.136q-1.08.42-2.252,0.805a42.539,42.539,0,0,1-13.291,2.177,38.129,38.129,0,0,1-13.012-2.341c-0.834-.3-1.628-0.62-2.391-0.95a43.627,43.627,0,0,1-4.46-2.234,7.192,7.192,0,0,0,.09,4.132c0.8,2.668,2.722,4.446,4.433,4.233,0.086,3.252.278,6.206,0.68,7.082,1.015,2.218,9.721,11.637,11,12.29s7.692,0.708,8.814,0,9.079-9.936,9.854-12.29A39.27,39.27,0,0,0,974.842,383.1Zm7.692-18.5c-0.79,1.306-2.679,3.228-6.88,5.026-0.081.034-.983,0.435-1.262-0.3a1.1,1.1,0,0,1,.5-1.466c4.121-1.763,4.522-3.546,5.127-4.382-0.676-2.663-2.429-10.917-12.971-14.277v15.4a3.889,3.889,0,0,1-3.846,3.92h-6.41a3.889,3.889,0,0,1-3.846-3.92V349.147c-8.962,2.614-12.122,10.9-13.016,14.488a0.589,0.589,0,0,1,.1.123,2.046,2.046,0,0,0,.138.216c0.454,0.651,2.17,2.708,6.851,4.712a1.107,1.107,0,0,1,.341,1.552,0.9,0.9,0,0,1-1.2.63,17.786,17.786,0,0,1-7.066-4.958H935v2.777a36.879,36.879,0,0,0,6.089,4.075c0.874,0.479,1.824.959,2.858,1.428q0.522,0.238,1.072.47a37.115,37.115,0,0,0,14.338,3.008c5.521,0,12.309-1.943,16.247-3.416,0.389-.145.771-0.293,1.14-0.441,1.27-.515,2.126-1.049,3.152-1.567a24.094,24.094,0,0,0,5.1-3.288V364.6h-2.465Zm-25.74,1.306h6.41a1.3,1.3,0,0,0,1.282-1.306V346.309A1.3,1.3,0,0,0,963.2,345h-6.41a1.294,1.294,0,0,0-1.282,1.306V364.6A1.294,1.294,0,0,0,956.794,365.908Z" transform="translate(-935 -345)"/>
</svg>
