<svg xmlns="http://www.w3.org/2000/svg" width="15" height="23" viewBox="0 0 15 23">
  <defs>
    <style>
      .cls-1 {
        fill: #ffb300;
        fill-rule: evenodd;
      }
    </style>
  </defs>
  <path id="Forma_1" data-name="Forma 1" class="cls-1" d="M884.5,101a7.563,7.563,0,0,0-7.5,7.608c0,1.689,1.064,4.444,3.251,8.421,1.548,2.812,3.07,5.158,3.134,5.256L884.5,124l1.115-1.714c0.064-.1,1.586-2.444,3.133-5.256,2.188-3.977,3.252-6.732,3.252-8.421A7.564,7.564,0,0,0,884.5,101Zm0,11.5a3.944,3.944,0,1,1,3.888-3.944A3.917,3.917,0,0,1,884.5,112.5Z" transform="translate(-877 -101)"/>
</svg>
