<svg xmlns="http://www.w3.org/2000/svg" width="26" height="24" viewBox="0 0 26 24">
  <defs>
    <style>
      .cls-1 {
        fill: #ffb300;
        fill-rule: evenodd;
      }
    </style>
  </defs>
  <path id="Forma_1" data-name="Forma 1" class="cls-1" d="M1299.84,109.256h-0.94a0.233,0.233,0,0,1-.27-0.244,9.158,9.158,0,0,0-9.19-8.012h-0.88a9.162,9.162,0,0,0-9.18,7.912,0.291,0.291,0,0,1-.23.344h-0.99c-0.65,0-2.16.662-2.16,4v1.753c0,2.476,1.51,3.047,2.16,3.047h3.14a1.164,1.164,0,0,0,1.18-1.142V110.4a1.164,1.164,0,0,0-1.18-1.143s-0.15-.012-0.11-0.268a7.4,7.4,0,0,1,7.37-6.241h0.88a7.374,7.374,0,0,1,7.36,6.17c0.02,0.112.08,0.339-.1,0.339a1.164,1.164,0,0,0-1.18,1.143v6.515a1.164,1.164,0,0,0,1.18,1.142h0.59c0.16,0,.14.126,0.12,0.189-0.48,2.1-1.56,4.491-3.98,4.491h-1.79a0.27,0.27,0,0,1-.26-0.192,1.724,1.724,0,0,0-1.5-.864h-1.65a1.661,1.661,0,1,0,0,3.32h1.65a1.725,1.725,0,0,0,1.51-.885,0.212,0.212,0,0,1,.24-0.142h1.8c1.65,0,3.85-.792,4.99-4.569,0.12-.4.22-0.8,0.3-1.189a0.163,0.163,0,0,1,.19-0.159h0.93c0.65,0,2.16-.571,2.16-3.047v-1.753C1302,109.965,1300.49,109.256,1299.84,109.256Z" transform="translate(-1276 -101)"/>
</svg>
