<svg xmlns="http://www.w3.org/2000/svg" xmlns:xlink="http://www.w3.org/1999/xlink" width="53" height="48" viewBox="0 0 53 48">
  <defs>
    <style>
      .cls-1 {
        fill: #ffb300;
        fill-rule: evenodd;
        filter: url(#filter);
      }
    </style>
    <filter id="filter" x="1201" y="1177" width="53" height="48" filterUnits="userSpaceOnUse">
      <feFlood result="flood" flood-color="#ffb300"/>
      <feComposite result="composite" operator="in" in2="SourceGraphic"/>
      <feBlend result="blend" in2="SourceGraphic"/>
    </filter>
  </defs>
  <path id="Icon_copy_3" data-name="Icon copy 3" class="cls-1" d="M1243.45,1205.11l-3.57,5.62-2.36-.97-8.24,15.24h9.68l4.23-5.7h3.64l3.9,5.7H1254l-7.5-19.05Zm2.89,15.14h-2.68l-3.53,4.75h9.46Zm-41.58-4.37-2.79,9.12h3.87l3.09-9.09,0.88-7.07h2.94l2.65,7.33-1.62,8.83h3.75l1.84-10-1.84-5.27-0.67-2.39,10.14,5.83-1.9,3.36,4.42,2.58,4.67-8.23-4.42-2.59-1.83,3.24-11.81-6.79-0.64-2.27,1.16-4.76,0.5,4.35,0.8,2.11,3.16,1.88-1.31-4.73-1.01-9.09-3.28-.14-0.57-1.61a5.049,5.049,0,0,0,3.97-4.7l-9.87-1.33a5.218,5.218,0,0,0-.11,1.06,5.117,5.117,0,0,0,2.21,4.22l-0.08-.01-1.98,1.68-2.53-.22-5.55,4.93v7.51l4.41,1.1Zm-0.95-14.99v-2.24l1.87-1.74v4.41Zm15.05-16.08,1.5,0.2c0.2-4.52-1.74-7.48-5.24-7.95a6.181,6.181,0,0,0-.85-0.06c-3.11,0-5.37,2.31-6.25,6.35l1.3,0.18Z" transform="translate(-1201 -1177)"/>
</svg>
