<svg xmlns="http://www.w3.org/2000/svg" width="52.031" height="50" viewBox="0 0 52.031 50">
  <defs>
    <style>
      .cls-1 {
        fill: #ffb300;
        fill-rule: evenodd;
      }
    </style>
  </defs>
  <path id="Forma_1" data-name="Forma 1" class="cls-1" d="M833.041,1227.74c-0.248-.16-1.025-0.36-1.238-0.53l-4.38,2.91-3.561-3.6,3.062-4.94c-0.114-.21-0.092-0.25-0.193-0.47l-5.64-1.02,0.022-5.56,4.116-.72-2.051-2.02a9.479,9.479,0,0,1-6.039,2.25h-0.014a9.41,9.41,0,0,1-5.748-2.02h0l-2.086,2.02H805.21a5.558,5.558,0,0,0-4.5,1.99c-3.354,3.93-2.792,12.38-2.528,14.97h35.473Zm-24.4-24.16a10.58,10.58,0,0,0,2.67,5.99,8.329,8.329,0,0,0,.947.89,8.58,8.58,0,0,0,1.353.89,7.4,7.4,0,0,0,7.037,0,8.534,8.534,0,0,0,1.353-.89,9.4,9.4,0,0,0,.954-0.9,10.537,10.537,0,0,0,2.664-5.95H825.7a2.923,2.923,0,0,0,2.685-3.12,3.3,3.3,0,0,0-1.118-2.53H807.453a3.3,3.3,0,0,0-1.118,2.53A2.993,2.993,0,0,0,808.643,1203.58Zm41.362,14.89v-2.4l-4.935-.9a9.031,9.031,0,0,0-1.061-2.59l2.87-4.16-1.68-1.7-4.117,2.9a8.9,8.9,0,0,0-2.557-1.07l-0.875-4.99h-2.372l-0.89,5a8.837,8.837,0,0,0-2.557,1.08l-4.1-2.91-1.681,1.7,2.863,4.17a8.962,8.962,0,0,0-1.054,2.59l-4.928.89v2.4l4.935,0.9a9.178,9.178,0,0,0,1.061,2.59l-2.877,4.15,1.681,1.7,4.116-2.9a8.391,8.391,0,0,0,2.557,1.07l0.876,4.99h2.372l0.89-5a8.82,8.82,0,0,0,2.556-1.07l4.1,2.91,1.68-1.71-2.863-4.16a9.049,9.049,0,0,0,1.054-2.59Zm-13.545,2.51a3.705,3.705,0,1,1,3.66-3.71A3.684,3.684,0,0,1,836.46,1220.98Zm-23.089-36.4a13.078,13.078,0,0,0-6.181,7.56l-0.2.64h-1.624v3.6h23.987v-3.6h-1.6l-0.2-.64a13.009,13.009,0,0,0-6.181-7.53v7.85a2.408,2.408,0,0,1-.227.89,2.24,2.24,0,0,1-1.966,1.24h-3.589a2.189,2.189,0,0,1-1.881-1.06,2.273,2.273,0,0,1-.313-0.87,1.161,1.161,0,0,1-.029-0.32v-7.76Zm2.223,9.06h3.56a1.314,1.314,0,0,0,1.168-.72,1.227,1.227,0,0,0,.171-0.63v-9.49a2.241,2.241,0,0,0-.114-0.64,1.8,1.8,0,0,0-1.652-1.15h-3.133a1.31,1.31,0,0,0-1.311,1.18c0,0.06-.028.11-0.028,0.17v9.93a1.457,1.457,0,0,0,.227.77A1.378,1.378,0,0,0,815.594,1193.64Z" transform="translate(-797.969 -1181)"/>
</svg>
